# xmcd CD database file
#
# Track frame offsets:
#	150
#	20001
#	42707
#	67505
#	90969
#	113297
#	138483
#	155862
#	175660
#	201843
#	220901
#	239882
#	258123
#
# Disc length: 3796 seconds
#
# Revision: 8
# Processed by: cddbd v1.5PL3 Copyright (c) Steve Scherf et al.
# Submitted via: CDex 1.51
#
DISCID=b00ed20d
DTITLE=L’Arc〜en〜Ciel - Clicked Singles Best 13
DYEAR=2001
DGENRE=Rock
TTITLE0=Blurry Eyes
TTITLE1=flower
TTITLE2=Lies and Truth
TTITLE3=虹
TTITLE4=winter fall
TTITLE5=DIVE TO BLUE
TTITLE6=HONEY
TTITLE7=HEAVEN'S DRIVE
TTITLE8=Pieces
TTITLE9=Driver's High
TTITLE10=NEO UNIVERSE
TTITLE11=STAY AWAY
TTITLE12=Anemone
EXTD=YEAR: 2001
EXTT0=
EXTT1=
EXTT2=
EXTT3=
EXTT4=
EXTT5=
EXTT6=
EXTT7=
EXTT8=
EXTT9=
EXTT10=
EXTT11=
EXTT12=
PLAYORDER=
